<svg id="dmgal_logo" xmlns="http://www.w3.org/2000/svg" width="89.19" height="63.125" viewBox="0 0 89.19 63.125">
  <defs>
    <style>
      .cls-1 {
        fill: #333;
      }

      .cls-1, .cls-2, .cls-3, .cls-4 {
        fill-rule: evenodd;
      }

      .cls-2 {
        fill: #e22654;
      }

      .cls-3 {
        fill: #f73b6a;
      }

      .cls-4 {
        fill: #e92c5b;
      }
    </style>
  </defs>
  <path id="Kallyas_" data-name="Kallyas  " class="cls-1" d="M1667.97,160.925h3.21V156.86l1.43-1.6,4.21,5.666h3.74q-0.99-1.374-2.98-4.177t-2.73-3.829l5.71-6.344h-3.96l-5.42,5.892v-5.892h-3.21v14.35Zm28.21,0-6.2-14.35h-3.1l-6.2,14.35h3.41l1.33-3.1h6.02l1.33,3.1h3.41Zm-5.95-5.912h-3.6l1.81-4.168Zm16.93,5.912v-2.853h-6.11v-11.5h-3.21v14.35h9.32Zm11.66,0v-2.853h-6.11v-11.5h-3.21v14.35h9.32Zm7.27-5.666,4.97-8.684h-3.47l-3.1,5.338-3.1-5.338h-3.47l4.97,8.684v5.666h3.2v-5.666Zm19.14,5.666-6.2-14.35h-3.1l-6.2,14.35h3.4l1.34-3.1h6.01l1.34,3.1h3.41Zm-5.96-5.912h-3.59l1.81-4.168Zm12.14-5.954a6.343,6.343,0,0,1,3.86,1.417l1.62-2.341a7.7,7.7,0,0,0-2.51-1.4,8.8,8.8,0,0,0-2.87-.493,5.916,5.916,0,0,0-3.67,1.109,3.732,3.732,0,0,0-1.46,3.151,3.642,3.642,0,0,0,1.16,3,9.155,9.155,0,0,0,3.66,1.55,7.106,7.106,0,0,1,2.12.77,1.206,1.206,0,0,1,.53,1.026,1.231,1.231,0,0,1-.5,1.027,2.274,2.274,0,0,1-1.39.38,6.808,6.808,0,0,1-4.29-2.033l-1.91,2.34a8.819,8.819,0,0,0,6.14,2.526,5.8,5.8,0,0,0,3.81-1.2,3.885,3.885,0,0,0,1.44-3.131,3.733,3.733,0,0,0-1.12-2.936,7.384,7.384,0,0,0-3.18-1.509,10.168,10.168,0,0,1-2.6-.872,1.136,1.136,0,0,1-.57-1,1.26,1.26,0,0,1,.46-1.006,1.945,1.945,0,0,1,1.27-.38h0Z" transform="translate(-1667.97 -97.969)"/>
  <path id="Shape_12_copy" data-name="Shape 12 copy" class="cls-2" d="M1707.21,115.793l10.73-.025,10,14.214-11.05.024Z" transform="translate(-1667.97 -97.969)"/>
  <path class="cls-3" d="M1705.52,129.962l23.3-24.26-13.17,0-10.13,10.552v13.71Z" transform="translate(-1667.97 -97.969)"/>
  <path class="cls-4" d="M1695.01,130.029l10.98-.018,0.01-32.03L1695,98Z" transform="translate(-1667.97 -97.969)"/>
</svg>
