<?xml version="1.0" encoding="UTF-8" standalone="no"?>
<svg width="150px" height="60px" viewBox="0 0 150 60" version="1.1" xmlns="http://www.w3.org/2000/svg" xmlns:xlink="http://www.w3.org/1999/xlink" xmlns:sketch="http://www.bohemiancoding.com/sketch/ns">
    <!-- Generator: Sketch 3.3.3 (12081) - http://www.bohemiancoding.com/sketch -->
    <title>logo2</title>
    <desc>Created with Sketch.</desc>
    <defs></defs>
    <g id="Page-1" stroke="none" stroke-width="1" fill="none" fill-rule="evenodd" sketch:type="MSPage">
        <g id="logo2" sketch:type="MSArtboardGroup">
            <g id="Group" sketch:type="MSLayerGroup" transform="translate(24.000000, 3.000000)">
                <ellipse id="ellipse3860" stroke="#FFFFFF" stroke-width="2.5" sketch:type="MSShapeGroup" cx="50.6450518" cy="27" rx="50.6450518" ry="27"></ellipse>
                <path d="M14.2222406,42.9868421 L19.7723832,14.2105263 L32.6070882,14.2105263 C38.1572308,14.5657895 40.9323022,17.4078947 40.9323022,22.3815789 C40.9323022,30.9078947 34.3415077,35.8815789 28.4444812,35.5263158 L22.2005707,35.5263158 L20.813035,42.9868421 L14.2222406,42.9868421 L14.2222406,42.9868421 Z M23.5881063,30.1973684 L25.3225259,19.5394737 L29.8320168,19.5394737 C32.2602042,19.5394737 33.9946238,20.6052632 33.9946238,22.7368421 C33.6477399,28.7763158 30.8726686,29.8421053 27.7507133,30.1973684 L23.5881063,30.1973684 L23.5881063,30.1973684 Z" id="p" fill="#FFFFFF" sketch:type="MSShapeGroup"></path>
                <path d="M38.8509987,35.5263158 L44.4011413,6.75 L50.9919357,6.75 L49.6044001,14.2105263 L55.8483106,14.2105263 C61.3984532,14.5657895 63.4797567,17.4078947 62.7859889,20.9605263 L60.3578015,35.5263158 L53.4201232,35.5263158 L55.8483106,22.3815789 C56.1951945,20.6052632 56.1951945,19.5394737 53.7670071,19.5394737 L48.5637483,19.5394737 L45.4417931,35.5263158 L38.8509987,35.5263158 L38.8509987,35.5263158 Z" id="h" fill="#FFFFFF" sketch:type="MSShapeGroup"></path>
                <path d="M60.7046854,42.9868421 L66.2548281,14.2105263 L79.089533,14.2105263 C84.6396757,14.5657895 87.414747,17.4078947 87.414747,22.3815789 C87.414747,30.9078947 80.8239526,35.8815789 74.926926,35.5263158 L68.6830155,35.5263158 L67.2954798,42.9868421 L60.7046854,42.9868421 L60.7046854,42.9868421 Z M70.0705512,30.1973684 L71.8049707,19.5394737 L76.3144617,19.5394737 C78.7426491,19.5394737 80.4770687,20.6052632 80.4770687,22.7368421 C80.1301847,28.7763158 77.3551134,29.8421053 74.2331582,30.1973684 L70.0705512,30.1973684 L70.0705512,30.1973684 Z" id="p" fill="#FFFFFF" sketch:type="MSShapeGroup"></path>
            </g>
        </g>
    </g>
</svg>