<?xml version="1.0" encoding="UTF-8" standalone="no"?>
<svg width="150px" height="60px" viewBox="0 0 150 60" version="1.1" xmlns="http://www.w3.org/2000/svg" xmlns:xlink="http://www.w3.org/1999/xlink" xmlns:sketch="http://www.bohemiancoding.com/sketch/ns">
    <!-- Generator: Sketch 3.3.3 (12081) - http://www.bohemiancoding.com/sketch -->
    <title>logo4</title>
    <desc>Created with Sketch.</desc>
    <defs></defs>
    <g id="Page-1" stroke="none" stroke-width="1" fill="none" fill-rule="evenodd" sketch:type="MSPage">
        <g id="logo4" sketch:type="MSArtboardGroup" fill="#FFFFFF">
            <g id="Group" sketch:type="MSLayerGroup" transform="translate(30.000000, 3.000000)">
                <path d="M30.0044715,2.01444359 L26.8275214,2.01444359 L30.131354,5.59332146 L30.131354,7.29688222 L23.3262877,7.29688222 L23.3262877,5.30235055 L26.6294768,5.30235055 L23.3262877,1.72334422 L23.3262877,0.0173426366 L30.0044715,0.0173426366 L30.0044715,2.01444359 L30.0044715,2.01444359 Z M21.9774222,2.01444359 L18.8004721,2.01444359 L22.104176,5.59332146 L22.104176,7.29688222 L15.2991097,7.29688222 L15.2991097,5.30235055 L18.6026849,5.30235055 L15.2991097,1.72334422 L15.2991097,0.0173426366 L21.9774222,0.0173426366 L21.9774222,2.01444359 L21.9774222,2.01444359 Z M14.0288701,2.09550435 L10.6007289,2.09550435 L10.6007289,5.21884897 L14.0288701,5.21884897 L14.0288701,7.29688222 L8.16422644,7.29688222 L8.16422644,0.0173426366 L14.0288701,0.0173426366 L14.0288701,2.09550435 L14.0288701,2.09550435 Z" id="Shape" sketch:type="MSShapeGroup"></path>
                <path d="M19.1560903,18.2579424 L31.1636568,18.2579424 L31.048742,19.541426 L29.8710263,32.7238852 L29.8415989,32.7238852 L29.8415989,32.7238852 L29.0555559,41.8188777 L28.9834929,42.6269161 L19.1764867,45.3403638 L19.1764867,45.3411029 L19.1543531,45.3472692 L9.33859644,42.6269161 L8.6673808,35.1160129 L10.8843484,35.1160129 L13.4774593,35.1160129 L13.8187292,38.931136 L19.1555112,40.369804 L19.1598865,40.3685714 L19.1598865,40.3680055 L24.5043896,38.9279244 L25.0631735,32.7238852 L19.1477902,32.7238852 L19.1477902,27.9404006 L25.4886933,27.9404006 L25.9266049,23.0418124 L19.1560903,23.0418124 L7.60496586,23.0418124 L7.58965247,23.0418124 L7.49352553,21.9665689 L7.27514882,19.541426 L7.16062008,18.2579424 L19.1560903,18.2579424 L19.1560903,18.2579424 Z M3.49274059,49.6243488 L0.00913656259,10.6201168 L38.2861865,10.6201168 L34.7993653,49.618054 L19.124241,53.9562825 L3.49274059,49.6243488 Z M19.1477902,30.9121578 L19.1477902,32.7128373 L13.8938807,32.724656 L13.782569,31.649541 L13.5640636,29.2243981 L13.4495349,27.9409145 L19.1477902,27.9409145 L19.1477902,30.9121578 Z" id="Shape" sketch:type="MSShapeGroup"></path>
                <path d="M64.2042366,23.8171484 L57.3391304,23.8171484 L57.7831692,28.812373 L64.2042366,28.812373 L64.2042366,28.812373 L74.1807167,28.812373 L75.4900425,28.812373 L75.3714895,30.1222754 L74.2297215,42.964668 L74.1566423,43.7888086 L64.2126359,46.5557262 L64.2126359,46.5565332 L64.1902734,46.5627637 L54.2373862,43.7888086 L53.5566695,36.1295215 L55.8046824,36.1295215 L58.4341406,36.1295215 L58.7800628,40.0200195 L64.1913434,41.4869727 L64.1958373,41.4853613 L69.6149287,40.0169043 L70.1789113,33.6904004 L64.2042366,33.6904004 L53.339572,33.6904004 L52.1453753,20.2477344 L52.0290693,18.9390137 L64.1958373,18.9390137 L64.2042366,18.9390137 L76.3672062,18.9390137 L76.2510071,20.2477344 L76.0296298,22.7206934 L75.9321552,23.8171484 L75.9165336,23.8171484 L64.2042366,23.8171484 Z M48.338947,50.5824902 L44.8068597,10.8087891 L83.618412,10.8087891 L80.0825798,50.5762598 L64.1888825,55 L48.338947,50.5824902 Z" id="Shape" sketch:type="MSShapeGroup"></path>
                <path d="M48.417911,0 L50.8870873,0 L50.8870873,2.44921875 L53.1457999,2.44921875 L53.1457999,0 L55.6150832,0 L55.6150832,7.41683594 L53.1459069,7.41683594 L53.1459069,4.93324219 L50.8871943,4.93324219 L50.8871943,7.41683594 L48.418018,7.41683594 L48.418018,0 L48.417911,0 Z" id="Shape" sketch:type="MSShapeGroup"></path>
                <path d="M58.8621298,2.45953125 L56.688373,2.45953125 L56.688373,0 L63.5062398,0 L63.5062398,2.45953125 L61.33152,2.45953125 L61.33152,7.41683594 L58.8622368,7.41683594 L58.8622368,2.45953125 L58.8621298,2.45953125 Z" id="Shape" sketch:type="MSShapeGroup"></path>
                <path d="M64.5883033,0 L67.1629789,0 L68.7467527,2.60605469 L70.3289215,0 L72.9045601,0 L72.9045601,7.41683594 L70.4455486,7.41683594 L70.4455486,3.74064453 L68.7467527,6.37774414 L68.7042748,6.37774414 L67.004302,3.74064453 L67.004302,7.41683594 L64.5883033,7.41683594 L64.5883033,0 L64.5883033,0 Z" id="Shape" sketch:type="MSShapeGroup"></path>
                <path d="M74.1334239,0 L76.6033492,0 L76.6033492,4.96525391 L80.075732,4.96525391 L80.075732,7.41683594 L74.1334239,7.41683594 L74.1334239,0 L74.1334239,0 Z" id="Shape" sketch:type="MSShapeGroup"></path>
            </g>
        </g>
    </g>
</svg>